#N canvas 2 70 734 300 16;
#N canvas 449 77 735 457 ppp_cents 0;
#X obj 55 60 notein;
#X obj 151 56 bendin;
#X obj 151 82 - 8192;
#X obj 151 105 / 81.92;
#X obj 55 208 pack;
#X obj 55 104 % 12;
#X obj 5 256 route 0 1 2 3 4 5 6 7 8 9 10 11, f 68;
#X floatatom 17 374 5 0 0 0 - - -, f 5;
#X floatatom 51 344 5 0 0 0 - - -, f 5;
#X floatatom 79 374 5 0 0 0 - - -, f 5;
#X floatatom 113 344 5 0 0 0 - - -, f 5;
#X floatatom 141 374 5 0 0 0 - - -, f 5;
#X floatatom 203 374 5 0 0 0 - - -, f 5;
#X floatatom 231 344 5 0 0 0 - - -, f 5;
#X floatatom 265 374 5 0 0 0 - - -, f 5;
#X floatatom 293 344 5 0 0 0 - - -, f 5;
#X floatatom 327 374 5 0 0 0 - - -, f 5;
#X floatatom 355 344 5 0 0 0 - - -, f 5;
#X floatatom 389 374 5 0 0 0 - - -, f 5;
#X obj 151 157 i;
#X obj 513 326 cnv 15 100 60 empty empty empty 20 12 0 14 -233017 -66577
0;
#X floatatom 357 216 5 0 0 0 pitchbend_range - -, f 5;
#X obj 151 133 *;
#N canvas 2 72 450 250 (subpatch) 0;
#X coords 0 1 100 -1 200 140 1;
#X restore 323 39 graph;
#X obj 55 83 stripnote;
#X obj 259 301 hradio 15 1 0 12 empty empty pitchbend_range -93 7 0
10 -262144 -1 -1 0;
#X text 421 314 12;
#X obj 228 192 + 1;
#X text 261 314 1;
#X connect 0 0 24 0;
#X connect 0 1 24 1;
#X connect 1 0 2 0;
#X connect 2 0 3 0;
#X connect 3 0 22 0;
#X connect 4 0 6 0;
#X connect 5 0 4 0;
#X connect 6 0 7 0;
#X connect 6 1 8 0;
#X connect 6 2 9 0;
#X connect 6 3 10 0;
#X connect 6 4 11 0;
#X connect 6 5 12 0;
#X connect 6 6 13 0;
#X connect 6 7 14 0;
#X connect 6 8 15 0;
#X connect 6 9 16 0;
#X connect 6 10 17 0;
#X connect 6 11 18 0;
#X connect 19 0 4 1;
#X connect 22 0 19 0;
#X connect 24 0 5 0;
#X connect 25 0 27 0;
#X connect 27 0 22 1;
#X coords 0 -1 1 1 460 100 2 0 300;
#X restore 77 76 pd ppp_cents;
