#N canvas 609 479 1045 495 10;
#X obj 55 77 notein;
#X obj 151 56 bendin;
#X obj 151 82 - 8192;
#X obj 151 105 / 81.92;
#X obj 55 208 pack;
#X obj 55 104 % 12;
#X obj 5 256 route 0 1 2 3 4 5 6 7 8 9 10 11, f 68;
#X floatatom 17 374 4 0 0 0 - - -, f 4;
#X floatatom 51 335 4 0 0 0 - - -, f 4;
#X floatatom 79 374 4 0 0 0 - - -, f 4;
#X floatatom 113 335 4 0 0 0 - - -, f 4;
#X floatatom 141 374 4 0 0 0 - - -, f 4;
#X floatatom 203 374 4 0 0 0 - - -, f 4;
#X floatatom 231 335 4 0 0 0 - - -, f 4;
#X floatatom 265 374 4 0 0 0 - - -, f 4;
#X floatatom 293 335 4 0 0 0 - - -, f 4;
#X floatatom 327 374 4 0 0 0 - - -, f 4;
#X floatatom 355 335 4 0 0 0 - - -, f 4;
#X floatatom 389 374 4 0 0 0 - - -, f 4;
#X obj 151 157 i;
#X obj 513 326 cnv 15 100 60 empty empty empty 20 12 0 14 -233017 -66577
0;
#X floatatom 404 304 5 0 0 0 pitchbend_range - -, f 5;
#X obj 151 133 *;
#X connect 0 0 5 0;
#X connect 1 0 2 0;
#X connect 2 0 3 0;
#X connect 3 0 22 0;
#X connect 4 0 6 0;
#X connect 5 0 4 0;
#X connect 6 0 7 0;
#X connect 6 1 8 0;
#X connect 6 2 9 0;
#X connect 6 3 10 0;
#X connect 6 4 11 0;
#X connect 6 5 12 0;
#X connect 6 6 13 0;
#X connect 6 7 14 0;
#X connect 6 8 15 0;
#X connect 6 9 16 0;
#X connect 6 10 17 0;
#X connect 6 11 18 0;
#X connect 19 0 4 1;
#X connect 21 0 22 1;
#X connect 22 0 19 0;
#X coords 0 -1 1 1 440 100 1 0 300;
